<svg width="248" height="62" viewBox="0 0 248 62" fill="none" xmlns="http://www.w3.org/2000/svg">
<path d="M0.429932 31C0.429932 47.69 13.9599 61.22 30.6499 61.22C47.3399 61.22 60.8699 47.69 60.8699 31C60.8699 14.31 47.3399 0.780029 30.6499 0.780029C13.9599 0.780029 0.429932 14.31 0.429932 31Z" fill="#3595B5"/>
<path d="M37.7199 24.05C37.6899 24.75 36.8099 26.44 34.8799 28.62C33.2599 30.56 31.3399 32.15 29.1399 33.4C25.2999 35.32 26.2399 38.01 26.9199 39.97C27.0299 40.29 27.1399 40.6 27.2299 40.9C27.2699 41.03 27.2399 41.14 27.1499 41.23C26.3199 42.04 24.9699 42.48 23.8399 42.66C22.2299 42.91 20.5499 43.34 18.9099 43.27C17.4599 43.21 15.8299 42.66 14.7999 41.61C13.7399 40.53 14.7199 39.07 15.4599 38.12C16.0799 37.33 17.5299 36.43 19.0599 35.48C22.0699 33.61 25.4799 31.5 24.9399 28.7C24.8199 27.84 24.5499 27.03 24.1399 26.27C23.7199 25.51 23.1799 24.85 22.5199 24.28C21.4999 23.51 20.3599 23.05 19.0999 22.88C19.2699 22.42 19.4799 21.97 19.7199 21.54C19.9599 21.11 20.2299 20.7 20.5299 20.31C20.8299 19.92 21.1599 19.55 21.5299 19.21C21.8899 18.87 22.2699 18.56 22.6799 18.28C23.0899 18 23.5099 17.75 23.9499 17.53C24.3899 17.31 24.8499 17.13 25.3199 16.98C25.7899 16.83 26.2699 16.72 26.7599 16.64C27.2499 16.57 27.7399 16.53 28.2299 16.53C28.7799 16.53 29.3199 16.58 29.8599 16.67C30.3999 16.76 30.9199 16.9 31.4399 17.08C31.9499 17.26 32.4499 17.48 32.9299 17.75C33.4099 18.01 33.8599 18.31 34.2899 18.65C34.7199 18.99 35.1099 19.36 35.4799 19.77C35.8499 20.17 36.1699 20.61 36.4699 21.07C36.7599 21.53 37.0199 22.01 37.2299 22.52C37.4299 23.01 37.5999 23.52 37.7199 24.05Z" fill="white"/>
<path d="M48.92 31.18C48.43 31.9 46.14 33.66 43.93 35.36C38.36 39.64 35.55 41.97 35.54 43.56H25.76C26.74 43.31 27.57 42.81 28.26 42.07C28.43 41.85 28.55 41.61 28.6 41.34C28.65 41.07 28.64 40.8 28.56 40.53C28.46 40.2 28.35 39.86 28.23 39.53C27.54 37.57 27.01 36.02 29.76 34.64C32.12 33.31 34.17 31.6 35.91 29.54C36.79 28.54 38.71 26.21 39.05 24.5C39.72 24.3 40.4 24.18 41.1 24.13C41.8 24.08 42.49 24.1 43.18 24.2C43.87 24.3 44.54 24.47 45.2 24.72C45.86 24.96 46.48 25.27 47.06 25.65C48.04 26.42 50.38 29.04 48.92 31.18Z" fill="white"/>
<path d="M51.5499 33.89C51.5499 34.08 51.5399 34.27 51.5299 34.46C51.5199 34.65 51.4999 34.84 51.4799 35.03C51.4499 35.22 51.4299 35.41 51.3899 35.6C51.3599 35.79 51.3199 35.97 51.2699 36.16C51.2199 36.35 51.1699 36.53 51.1199 36.71C51.0599 36.89 50.9999 37.07 50.9299 37.25C50.8599 37.43 50.7899 37.61 50.7199 37.78C50.6399 37.95 50.5599 38.13 50.4699 38.3C50.3799 38.47 50.2899 38.64 50.1899 38.8C50.0899 38.96 49.9899 39.13 49.8899 39.28C49.7799 39.44 49.6699 39.59 49.5599 39.75C49.4399 39.9 49.3299 40.05 49.1999 40.2C49.0799 40.34 48.9499 40.49 48.8099 40.62C48.6799 40.76 48.5399 40.89 48.3999 41.02C48.2599 41.15 48.1199 41.27 47.9699 41.4C47.8199 41.52 47.6699 41.64 47.5199 41.75C47.3599 41.86 47.2099 41.97 47.0499 42.07C46.8899 42.17 46.7199 42.27 46.5599 42.36C46.3899 42.45 46.2199 42.54 46.0499 42.62C45.8799 42.7 45.6999 42.78 45.5299 42.85C45.3499 42.92 45.1799 42.99 44.9999 43.05C44.8199 43.11 44.6399 43.17 44.4499 43.22C44.2699 43.27 44.0799 43.32 43.8999 43.36C43.7099 43.4 43.5199 43.44 43.3399 43.47C43.1499 43.5 42.9599 43.53 42.7699 43.54H37.3599C37.2199 43.54 37.0799 43.51 36.9399 43.47C37.0099 43.25 37.3699 42.53 39.3499 40.78C40.8899 39.42 42.9599 37.83 44.7799 36.43C47.6799 34.21 49.4799 32.8 50.0699 31.94C50.4799 31.35 50.7199 30.69 50.7699 29.97C50.8499 30.14 50.9099 30.32 50.9799 30.5C51.0499 30.68 51.1099 30.87 51.1599 31.06C51.2099 31.24 51.2599 31.42 51.3099 31.61C51.3599 31.8 51.3899 31.98 51.4199 32.17C51.4499 32.36 51.4799 32.55 51.4999 32.74C51.5199 32.93 51.5399 33.12 51.5499 33.31C51.5399 33.51 51.5499 33.7 51.5499 33.89Z" fill="white"/>
<path d="M18.33 34.3C16.68 35.32 15.13 36.28 14.37 37.27C13.2 38.77 12.78 39.95 13 41.08C12.49 40.62 12.03 40.12 11.62 39.56C11.21 39.01 10.87 38.41 10.59 37.79C10.31 37.16 10.1 36.51 9.94998 35.84C9.80998 35.17 9.72998 34.49 9.72998 33.8C9.72998 33.51 9.73999 33.22 9.76999 32.93C9.79999 32.64 9.83998 32.35 9.88998 32.06C9.93998 31.77 10.01 31.49 10.08 31.21C10.16 30.93 10.25 30.65 10.35 30.38C10.45 30.11 10.57 29.84 10.7 29.58C10.83 29.32 10.96 29.06 11.11 28.81C11.26 28.56 11.42 28.32 11.59 28.08C11.76 27.85 11.94 27.62 12.14 27.4C12.33 27.18 12.53 26.97 12.74 26.77C12.95 26.57 13.17 26.38 13.4 26.19C13.63 26.01 13.86 25.84 14.11 25.68C14.35 25.52 14.6 25.37 14.86 25.23C15.12 25.09 15.38 24.97 15.65 24.85C15.92 24.73 16.19 24.63 16.47 24.54C16.75 24.45 17.03 24.37 17.31 24.31C17.59 24.24 17.88 24.19 18.17 24.15C21.4 24.5 22.97 25.9 23.56 28.97C23.95 30.82 20.96 32.67 18.33 34.3Z" fill="white"/>
<path d="M85.2699 39.91C84.2999 40.75 83.1999 41.39 81.9899 41.84C80.7799 42.29 79.5299 42.51 78.2299 42.51C77.2299 42.51 76.2799 42.38 75.3599 42.12C74.4399 41.86 73.5799 41.5001 72.7699 41.0201C71.9699 40.5501 71.2299 39.9801 70.5699 39.3201C69.9099 38.6601 69.3399 37.92 68.8699 37.12C68.3999 36.32 68.0299 35.45 67.7699 34.53C67.5099 33.61 67.3799 32.65 67.3799 31.66C67.3799 30.67 67.5099 29.7 67.7699 28.78C68.0299 27.85 68.3899 26.99 68.8699 26.18C69.3399 25.38 69.9099 24.64 70.5699 23.98C71.2299 23.32 71.9699 22.75 72.7699 22.28C73.5699 21.81 74.4399 21.44 75.3599 21.18C76.2799 20.92 77.2399 20.79 78.2299 20.79C79.5299 20.79 80.7799 21.0101 81.9899 21.4601C83.1999 21.9001 84.2899 22.55 85.2699 23.4L83.0499 27.06C82.4399 26.4 81.7099 25.89 80.8699 25.53C80.0299 25.17 79.1499 25 78.2399 25C77.3099 25 76.4499 25.18 75.6399 25.53C74.8299 25.88 74.1199 26.3601 73.5199 26.9601C72.9099 27.5601 72.4399 28.27 72.0899 29.08C71.7399 29.89 71.5599 30.76 71.5599 31.68C71.5599 32.6 71.7399 33.46 72.0899 34.26C72.4399 35.06 72.9199 35.77 73.5199 36.37C74.1199 36.98 74.8299 37.45 75.6399 37.8C76.4499 38.15 77.3199 38.33 78.2399 38.33C79.1599 38.33 80.0299 38.15 80.8699 37.8C81.7099 37.44 82.4399 36.9301 83.0499 36.2701L85.2699 39.91Z" fill="white"/>
<path d="M91.2899 42.06H87.2699V20.17H91.2899V42.06Z" fill="white"/>
<path d="M109.47 34.09C109.47 35.26 109.26 36.35 108.84 37.36C108.42 38.37 107.85 39.24 107.13 39.98C106.41 40.72 105.56 41.3 104.59 41.72C103.62 42.14 102.58 42.36 101.47 42.36C100.37 42.36 99.33 42.15 98.36 41.72C97.39 41.3 96.54 40.72 95.82 39.98C95.09 39.24 94.52 38.37 94.1 37.36C93.68 36.35 93.47 35.26 93.47 34.09C93.47 32.9 93.68 31.8 94.1 30.79C94.52 29.78 95.09 28.9 95.82 28.16C96.55 27.42 97.39 26.85 98.36 26.43C99.33 26.01 100.37 25.8 101.47 25.8C102.58 25.8 103.62 26 104.59 26.39C105.56 26.79 106.41 27.3501 107.13 28.0701C107.85 28.8001 108.42 29.67 108.84 30.69C109.26 31.71 109.47 32.85 109.47 34.09ZM105.45 34.09C105.45 33.45 105.35 32.86 105.14 32.34C104.93 31.82 104.64 31.37 104.28 31C103.92 30.62 103.5 30.34 103.02 30.14C102.54 29.94 102.02 29.84 101.48 29.84C100.93 29.84 100.42 29.94 99.94 30.14C99.46 30.34 99.04 30.63 98.68 31C98.32 31.38 98.04 31.82 97.84 32.34C97.63 32.86 97.53 33.44 97.53 34.09C97.53 34.69 97.63 35.2601 97.84 35.7701C98.04 36.2901 98.32 36.74 98.68 37.12C99.04 37.5 99.46 37.8001 99.94 38.0201C100.42 38.2401 100.94 38.3501 101.48 38.3501C102.03 38.3501 102.54 38.25 103.02 38.04C103.5 37.83 103.92 37.55 104.28 37.18C104.64 36.81 104.93 36.36 105.14 35.83C105.35 35.3 105.45 34.73 105.45 34.09Z" fill="white"/>
<path d="M123.19 40.24C122.87 40.53 122.52 40.81 122.16 41.07C121.79 41.33 121.41 41.55 121.01 41.74C120.61 41.93 120.2 42.08 119.77 42.19C119.35 42.3 118.91 42.36 118.48 42.36C117.52 42.36 116.61 42.19 115.76 41.85C114.91 41.51 114.17 41.02 113.53 40.39C112.89 39.76 112.39 39 112.02 38.09C111.65 37.19 111.47 36.18 111.47 35.06V26.4H115.45V35.06C115.45 35.59 115.53 36.06 115.69 36.47C115.85 36.88 116.07 37.23 116.34 37.51C116.61 37.79 116.93 38.01 117.3 38.15C117.67 38.3 118.06 38.37 118.48 38.37C118.89 38.37 119.28 38.28 119.64 38.08C120.01 37.89 120.32 37.64 120.6 37.33C120.87 37.02 121.09 36.66 121.24 36.27C121.4 35.88 121.47 35.47 121.47 35.05V26.39H125.46V42.05H124.49L123.19 40.24Z" fill="white"/>
<path d="M143.65 42.0601H142.68L141.13 39.9101C140.75 40.2501 140.35 40.5701 139.92 40.8701C139.5 41.1701 139.05 41.4301 138.58 41.6501C138.11 41.8701 137.63 42.0401 137.14 42.1701C136.65 42.3001 136.15 42.3601 135.64 42.3601C134.54 42.3601 133.5 42.1501 132.53 41.7401C131.56 41.3301 130.71 40.7501 129.99 40.0101C129.26 39.2701 128.69 38.4001 128.27 37.3901C127.85 36.3801 127.64 35.2801 127.64 34.0901C127.64 32.9101 127.85 31.8101 128.27 30.8001C128.69 29.7901 129.26 28.9101 129.99 28.1701C130.72 27.4301 131.56 26.8501 132.53 26.4301C133.5 26.0101 134.54 25.8001 135.64 25.8001C135.99 25.8001 136.35 25.8301 136.73 25.8901C137.11 25.9501 137.47 26.0401 137.83 26.1801C138.19 26.3101 138.52 26.4801 138.83 26.7001C139.14 26.9101 139.4 27.1801 139.62 27.4901V20.1801H143.64V42.0601H143.65ZM139.63 34.0901C139.63 33.5401 139.53 33.0101 139.32 32.5001C139.11 31.9901 138.82 31.5401 138.46 31.1401C138.1 30.7501 137.68 30.4301 137.2 30.1901C136.72 29.9501 136.2 29.8301 135.66 29.8301C135.11 29.8301 134.6 29.9301 134.12 30.1201C133.64 30.3101 133.22 30.5901 132.86 30.9601C132.5 31.3301 132.22 31.7701 132.02 32.3001C131.81 32.8301 131.71 33.4201 131.71 34.0801C131.71 34.6601 131.81 35.2001 132.02 35.7201C132.22 36.2401 132.5 36.6901 132.86 37.0801C133.22 37.4701 133.64 37.7801 134.12 38.0001C134.6 38.2201 135.12 38.3401 135.66 38.3401C136.21 38.3401 136.72 38.2201 137.2 37.9801C137.68 37.7401 138.1 37.4201 138.46 37.0301C138.82 36.6301 139.11 36.1801 139.32 35.6701C139.53 35.1601 139.63 34.6401 139.63 34.0901Z" fill="white"/>
<path d="M145.89 27.3801C145.89 26.5101 146.06 25.7001 146.39 24.9401C146.72 24.1801 147.17 23.5101 147.74 22.9401C148.31 22.3701 148.98 21.9201 149.74 21.5901C150.5 21.2601 151.32 21.0901 152.18 21.0901H161.8V25.2901H152.18C151.89 25.2901 151.61 25.3401 151.36 25.4501C151.11 25.5601 150.88 25.7101 150.69 25.9001C150.5 26.0901 150.35 26.3101 150.24 26.5701C150.13 26.8201 150.08 27.1001 150.08 27.3901C150.08 27.6801 150.13 27.9601 150.24 28.2201C150.35 28.4801 150.5 28.7001 150.69 28.8901C150.88 29.0801 151.1 29.2301 151.36 29.3401C151.61 29.4501 151.89 29.5001 152.18 29.5001H156.38C157.25 29.5001 158.06 29.6601 158.83 29.9901C159.6 30.3201 160.26 30.7701 160.83 31.3401C161.4 31.9101 161.85 32.5801 162.18 33.3401C162.51 34.1101 162.67 34.9201 162.67 35.7901C162.67 36.6601 162.51 37.4701 162.18 38.2301C161.85 38.9901 161.4 39.6601 160.83 40.2301C160.26 40.8001 159.59 41.2501 158.83 41.5801C158.07 41.9101 157.25 42.0801 156.38 42.0801H147.06V37.8801H156.38C156.67 37.8801 156.94 37.8301 157.2 37.7201C157.46 37.6101 157.68 37.4601 157.87 37.2701C158.06 37.0801 158.21 36.8601 158.32 36.6001C158.43 36.3401 158.48 36.0701 158.48 35.7801C158.48 35.4901 158.43 35.2101 158.32 34.9601C158.21 34.7101 158.06 34.4801 157.87 34.2901C157.68 34.1001 157.46 33.9501 157.2 33.8401C156.94 33.7301 156.67 33.6801 156.38 33.6801H152.18C151.31 33.6801 150.5 33.5101 149.74 33.1801C148.98 32.8501 148.31 32.4001 147.74 31.8301C147.17 31.2601 146.72 30.5901 146.39 29.8301C146.05 29.0601 145.89 28.2501 145.89 27.3801Z" fill="#3595B5"/>
<path d="M172.58 42.06C171.61 42.06 170.71 41.88 169.86 41.51C169.01 41.14 168.27 40.64 167.63 40C166.99 39.36 166.49 38.62 166.12 37.77C165.75 36.92 165.57 36.02 165.57 35.05V30.4H163.62V26.42H165.57V20.16H169.55V26.42H175.6V30.4H169.55V35.05C169.55 35.47 169.63 35.86 169.78 36.23C169.93 36.6 170.15 36.92 170.42 37.19C170.69 37.46 171.01 37.68 171.39 37.84C171.76 38 172.15 38.08 172.57 38.08H175.6V42.06H172.58Z" fill="#3595B5"/>
<path d="M193.01 42.06H192.04L190.49 39.91C190.11 40.25 189.71 40.57 189.28 40.87C188.86 41.17 188.41 41.43 187.94 41.65C187.47 41.87 186.99 42.04 186.5 42.17C186.01 42.3 185.51 42.36 185 42.36C183.9 42.36 182.86 42.17 181.89 41.8C180.92 41.43 180.07 40.89 179.35 40.18C178.62 39.47 178.05 38.61 177.63 37.58C177.21 36.56 177 35.39 177 34.08C177 32.86 177.21 31.74 177.63 30.72C178.05 29.7 178.62 28.83 179.35 28.09C180.08 27.36 180.92 26.79 181.89 26.39C182.86 25.99 183.9 25.78 185 25.78C185.51 25.78 186.01 25.84 186.51 25.97C187.01 26.1 187.49 26.27 187.96 26.5C188.43 26.72 188.87 26.99 189.3 27.29C189.72 27.59 190.12 27.92 190.49 28.27L192.04 26.41H193.01V42.06ZM188.98 34.09C188.98 33.54 188.88 33.01 188.67 32.5C188.46 31.99 188.17 31.54 187.81 31.14C187.45 30.75 187.03 30.43 186.55 30.19C186.07 29.95 185.55 29.83 185.01 29.83C184.46 29.83 183.95 29.92 183.47 30.11C182.99 30.29 182.57 30.57 182.21 30.93C181.85 31.29 181.57 31.74 181.37 32.27C181.16 32.8 181.06 33.41 181.06 34.09C181.06 34.77 181.16 35.38 181.37 35.91C181.57 36.44 181.85 36.89 182.21 37.25C182.57 37.61 182.99 37.88 183.47 38.07C183.95 38.25 184.47 38.35 185.01 38.35C185.56 38.35 186.07 38.23 186.55 37.99C187.03 37.75 187.45 37.43 187.81 37.04C188.17 36.64 188.46 36.19 188.67 35.68C188.88 35.17 188.98 34.64 188.98 34.09Z" fill="#3595B5"/>
<path d="M203.9 42.06C202.93 42.06 202.03 41.88 201.18 41.51C200.33 41.14 199.59 40.64 198.95 40C198.31 39.36 197.81 38.62 197.44 37.77C197.07 36.92 196.89 36.02 196.89 35.05V30.4H194.94V26.42H196.89V20.16H200.87V26.42H206.92V30.4H200.87V35.05C200.87 35.47 200.95 35.86 201.1 36.23C201.25 36.6 201.47 36.92 201.74 37.19C202.01 37.46 202.33 37.68 202.71 37.84C203.08 38 203.47 38.08 203.89 38.08H206.92V42.06H203.9Z" fill="#3595B5"/>
<path d="M213.88 22.15C213.88 22.52 213.81 22.87 213.67 23.19C213.53 23.51 213.34 23.79 213.09 24.03C212.85 24.27 212.56 24.46 212.23 24.6C211.9 24.74 211.55 24.81 211.18 24.81C210.81 24.81 210.46 24.74 210.13 24.6C209.8 24.46 209.52 24.27 209.28 24.03C209.04 23.79 208.85 23.51 208.71 23.19C208.57 22.87 208.5 22.52 208.5 22.15C208.5 21.79 208.57 21.45 208.71 21.12C208.85 20.79 209.04 20.51 209.28 20.27C209.52 20.03 209.8 19.84 210.13 19.7C210.46 19.56 210.81 19.49 211.18 19.49C211.55 19.49 211.9 19.56 212.23 19.7C212.56 19.84 212.84 20.03 213.09 20.27C213.33 20.51 213.53 20.79 213.67 21.12C213.81 21.44 213.88 21.78 213.88 22.15ZM213.19 42.06H209.17V26.4H213.19V42.06Z" fill="#3595B5"/>
<path d="M231.37 34.09C231.37 35.26 231.16 36.35 230.74 37.36C230.32 38.37 229.75 39.24 229.03 39.98C228.31 40.72 227.46 41.3 226.49 41.72C225.52 42.14 224.48 42.36 223.37 42.36C222.27 42.36 221.23 42.15 220.26 41.72C219.29 41.3 218.44 40.72 217.72 39.98C216.99 39.24 216.42 38.37 216 37.36C215.58 36.35 215.37 35.26 215.37 34.09C215.37 32.9 215.58 31.8 216 30.79C216.42 29.78 216.99 28.9 217.72 28.16C218.45 27.42 219.29 26.85 220.26 26.43C221.23 26.01 222.27 25.8 223.37 25.8C224.48 25.8 225.52 26 226.49 26.39C227.46 26.79 228.31 27.3501 229.03 28.0701C229.75 28.8001 230.32 29.67 230.74 30.69C231.16 31.71 231.37 32.85 231.37 34.09ZM227.35 34.09C227.35 33.45 227.25 32.86 227.04 32.34C226.83 31.82 226.54 31.37 226.18 31C225.82 30.62 225.4 30.34 224.92 30.14C224.44 29.94 223.92 29.84 223.38 29.84C222.83 29.84 222.32 29.94 221.84 30.14C221.36 30.34 220.94 30.63 220.58 31C220.22 31.38 219.94 31.82 219.74 32.34C219.53 32.86 219.43 33.44 219.43 34.09C219.43 34.69 219.53 35.2601 219.74 35.7701C219.94 36.2901 220.22 36.74 220.58 37.12C220.94 37.5 221.36 37.8001 221.84 38.0201C222.32 38.2401 222.84 38.3501 223.38 38.3501C223.93 38.3501 224.44 38.25 224.92 38.04C225.4 37.83 225.82 37.55 226.18 37.18C226.54 36.81 226.83 36.36 227.04 35.83C227.25 35.3 227.35 34.73 227.35 34.09Z" fill="#3595B5"/>
<path d="M237.57 42.0601H233.58V26.4001H234.55L235.87 27.9201C236.51 27.3401 237.24 26.8801 238.06 26.5701C238.87 26.2501 239.72 26.0901 240.61 26.0901C241.57 26.0901 242.47 26.2701 243.32 26.6401C244.17 27.0101 244.91 27.5101 245.54 28.1501C246.17 28.7901 246.67 29.5301 247.04 30.3901C247.41 31.2401 247.59 32.1501 247.59 33.1201V42.0701H243.6V33.1201C243.6 32.7101 243.52 32.3201 243.37 31.9601C243.21 31.5901 243 31.2801 242.73 31.0001C242.46 30.7301 242.14 30.5101 241.78 30.3601C241.42 30.2001 241.03 30.1301 240.62 30.1301C240.2 30.1301 239.81 30.2101 239.44 30.3601C239.07 30.5201 238.75 30.7301 238.47 31.0001C238.2 31.2701 237.98 31.5901 237.83 31.9601C237.67 32.3301 237.6 32.7101 237.6 33.1201V42.0601H237.57Z" fill="#3595B5"/>
</svg>
