<svg xmlns="http://www.w3.org/2000/svg" version="1.1" xmlns:xlink="http://www.w3.org/1999/xlink" xmlns:svgjs="http://svgjs.dev/svgjs" width="80" height="80"><svg width="80" height="80" viewBox="0 0 80 80" fill="none" xmlns="http://www.w3.org/2000/svg">
  <!-- Bug Play Icon -->
  <g transform="translate(20, 12) scale(1.5)">
    <path d="M12.765 21.522a.5.5 0 0 1-.765-.424v-8.196a.5.5 0 0 1 .765-.424l5.878 3.674a1 1 0 0 1 0 1.696z" fill="#3B82F6"></path>
    <path d="M14.12 3.88 16 2M18 11a4 4 0 0 0-4-4h-4a4 4 0 0 0-4 4v3a6.1 6.1 0 0 0 2 4.5M20.97 5c0 2.1-1.6 3.8-3.5 4M3 21c0-2.1 1.7-3.9 3.8-4M6 13H2M6.53 9C4.6 8.8 3 7.1 3 5M8 2l1.88 1.88M9 7.13v-1a3.003 3.003 0 1 1 6 0v1" stroke="#3B82F6" stroke-width="2" stroke-linecap="round" stroke-linejoin="round"></path>
  </g>
  <!-- Name Text -->
  <g>
    <!-- Last Name -->
    <text x="40" y="68" font-family="Montserrat, Inter, sans-serif" font-size="10" font-weight="700" text-anchor="middle" letter-spacing="0.7" fill="#3B82F6" svgjs:data="{&quot;leading&quot;:&quot;1.3&quot;}">
      ABBAS
    </text>
  </g>

  <!-- Subtle Border -->
  <rect x="1" y="1" width="78" height="78" rx="18" stroke="#3B82F6" stroke-width="0.5" stroke-opacity="0.3"></rect>
</svg><style>@media (prefers-color-scheme: light) { :root { filter: none; } }
@media (prefers-color-scheme: dark) { :root { filter: none; } }
</style></svg>